<?xml version="1.0" encoding="utf-8"?>
<!-- Svg Vector Icons : http://www.onlinewebfonts.com/icon -->
<!DOCTYPE svg PUBLIC "-//W3C//DTD SVG 1.1//EN" "http://www.w3.org/Graphics/SVG/1.1/DTD/svg11.dtd">
<svg version="1.1" xmlns="http://www.w3.org/2000/svg" xmlns:xlink="http://www.w3.org/1999/xlink" x="0px" y="0px" viewBox="0 0 1000 1000" enable-background="new 0 0 1000 1000" xml:space="preserve">
<metadata> Svg Vector Icons : http://www.onlinewebfonts.com/icon </metadata>
<g><path d="M121.6,499.2c24.1-0.8,48.3-0.2,72.5-0.2v0.1c21.7,0,40.7,1.2,62.4,1.2c13,0,32.1,6.8,32.6-15.8c0.4-16.5-4.1-33.2-22.9-35.5c-50.3-5.9-101-6.5-151.3,0.5c-12.1,1.7-26.1,11.5-21.8,27.7C96.5,490,105.1,499.7,121.6,499.2 M132.9,397c40.4,2.8,77.4,1.4,115.7,0.9c51.1-0.6,81.2-10.6,112-54.5c-79.9,0-154.2,0.4-228.5-0.2c-20.2-0.2-39.2,3-38.4,25.9C94.5,389.7,112.5,397,132.9,397 M371.1,610.2c11-0.1,27.2-1.7,12.6-16.8c-17.4-17.9-33-38.8-65-37.6c-61.4,2.4-122.9,1.3-184.4,0.3c-21.9-0.4-41.9,4.6-41.1,27.6c0.8,22.2,21.3,27.6,42.8,27.1c37.3-0.8,74.8-0.2,112.1-0.2v-0.2C289.1,610.4,330.1,610.6,371.1,610.2 M610.7,743.1c-25.8,3.3-70.6,6.9-102.9,25.1c-9.9,5.6-18.2,12.7-23.5,20.7c-28,42.1-53.8,85.6-81.6,127.7c-16.4,24.9-10.1,46.8,10.6,62c22.1,16.3,49.1,16,66.8-7.7c50.1-66.8,98.6-134.7,147.3-202.5C640.8,749.7,631.6,745.6,610.7,743.1 M904,381.1c-18-40.8-52.8-21.5-81.9-23.1c-27.4-1.6-55.5,29.2-78.6,8.9c-20-17.5-31.7-46.8-40.9-72.9c-11.8-33.8-39.3-57.6-61.1-92.9c77.3,29.5,123.9,2,146.5-34.2c26-41.8,18.9-96.5-16.4-128.7C735.9,5.6,682.1,0.7,642.5,26.4c-50.6,32.9-57.8,75-23.6,158.4c-55-17.1-100.5-42.9-149-61.8c-19.3-7.5-37.6-26.3-60.1-17.3c-59.4,24-118.5,48.9-176.3,76.4c-35.6,17-43.2,41.3-28.2,68.4c12.2,22.1,43.1,29.2,73.5,16c26.1-11.2,52.3-22.3,77.4-35.6c41.9-22.3,79.8-22.7,120.7,5.5c26.6,18.4,22.8,29.5,3.1,48c-44.5,41.8-92.1,80.8-129.3,129.7c-27.3,35.9-26,73,6.7,103.9c40.3,38.1,82.5,74.3,123.4,111.8c12.7,11.6,23.8,23.2-6,28.7c-39.9,7.4-79.1,17.9-118.9,26c-29.1,5.9-52.9,32.6-47.9,56.1c5.9,27.7,40.5,45.4,70.4,38.5c78.8-18.4,157.6-36.6,236.8-53c40.6-8.4,59.6-48.4,35.2-80.8c-22.7-30-47.2-58.7-69.1-89.2c-51.5-71.6-51.1-71.9,13.8-134.5c36.5-35.2,36.2-35,63.9,10.8c12.1,19.9,22.4,44.1,52.1,41.8c58.7-4.6,115.5-19.5,172.1-34.5C904.7,434.1,913.2,402,904,381.1"/></g>
</svg>